<?xml version="1.0" standalone="no"?>
<!DOCTYPE svg PUBLIC "-//W3C//DTD SVG 20010904//EN"
 "http://www.w3.org/TR/2001/REC-SVG-20010904/DTD/svg10.dtd">
<svg version="1.0" xmlns="http://www.w3.org/2000/svg"
 width="225.000000pt" height="225.000000pt" viewBox="0 0 225.000000 225.000000"
 preserveAspectRatio="xMidYMid meet">

<g transform="translate(0.000000,225.000000) scale(0.100000,-0.100000)"
fill="#000000" stroke="none">
<path d="M850 1626 c0 -27 -49 -136 -90 -201 -89 -142 -188 -270 -362 -465
-43 -48 -76 -94 -75 -105 1 -10 -4 -20 -10 -22 -7 -3 -13 2 -13 11 0 9 -1 16
-2 16 -51 -9 -102 -31 -99 -41 2 -8 4 -22 5 -31 0 -10 4 -18 9 -18 5 0 17 -10
26 -21 25 -31 61 -18 61 21 0 29 33 60 44 41 3 -4 43 -11 88 -15 202 -17 468
-70 663 -133 63 -20 62 -19 40 -43 -22 -24 -35 -26 -35 -5 0 8 -4 15 -10 15
-5 0 -10 -7 -10 -16 0 -12 -7 -15 -25 -12 -15 3 -22 1 -18 -5 4 -7 0 -8 -11
-4 -20 8 -19 3 12 -66 23 -50 56 -48 60 3 3 28 12 42 47 68 40 31 46 33 81 23
21 -6 40 -8 42 -6 3 3 6 31 6 62 2 53 7 66 62 148 91 137 196 324 175 311 -6
-4 -11 -3 -11 3 0 12 70 143 80 151 12 9 140 253 135 258 -2 2 -26 -1 -52 -8
-204 -53 -541 -13 -795 95 -13 5 -18 3 -18 -9z m612 -573 c-36 -61 -81 -124
-69 -98 16 37 100 175 104 171 3 -2 -13 -35 -35 -73z"/>
<path d="M1692 1162 c-5 -138 -56 -289 -114 -344 -31 -29 -31 -30 -8 -23 37
11 73 49 91 97 35 91 40 125 37 223 -2 55 -5 76 -6 47z"/>
<path d="M1905 1181 c31 -52 126 -146 173 -170 23 -12 42 -28 42 -36 0 -22 13
-18 44 10 15 14 22 25 17 25 -6 0 -11 9 -11 20 0 15 -7 20 -29 20 -16 0 -31
-5 -33 -12 -7 -21 -90 36 -158 109 -44 47 -58 58 -45 34z"/>
<path d="M1525 1169 c-4 -6 -5 -12 -2 -15 2 -3 7 2 10 11 7 17 1 20 -8 4z"/>
<path d="M1723 1120 c1 -36 8 -71 15 -78 6 -7 12 -22 12 -33 0 -10 7 -19 15
-19 7 0 18 -6 22 -12 12 -19 53 -40 53 -28 0 5 10 10 23 11 18 1 16 2 -8 10
-58 16 -93 64 -120 161 l-14 53 2 -65z"/>
</g>
</svg>
